<svg xmlns="http://www.w3.org/2000/svg" width="1200" height="1500" viewBox="0 0 1200 1500" role="img" aria-label="Phương Nam">
  <defs>
    <linearGradient id="g" x1="0" x2="1" y1="0" y2="1"><stop offset="0" stop-color="#d9e4df"/><stop offset="1" stop-color="#fffaf0"/></linearGradient>
    <radialGradient id="r" cx="50%" cy="30%" r="65%"><stop offset="0" stop-color="#ffffff" stop-opacity="0.75"/><stop offset="1" stop-color="#ffffff" stop-opacity="0"/></radialGradient>
    <filter id="shadow" x="-20%" y="-20%" width="140%" height="140%"><feDropShadow dx="0" dy="20" stdDeviation="24" flood-color="#6f3b3b" flood-opacity="0.18"/></filter>
  </defs>
  <rect width="1200" height="1500" fill="url(#g)"/>
  <rect width="1200" height="1500" fill="url(#r)"/>
  <circle cx="1040" cy="230" r="210" fill="#fff" opacity="0.18"/>
  <circle cx="120" cy="1320" r="260" fill="#fff" opacity="0.16"/>
  <path d="M160 1160 C320 1030 460 1210 600 1080 C740 950 890 1080 1040 940" fill="none" stroke="#8a9b83" stroke-width="5" opacity="0.55"/>
  <g filter="url(#shadow)">
    <rect x="210" y="280" width="780" height="940" rx="58" fill="#fffaf0" opacity="0.78"/>
    <rect x="250" y="320" width="700" height="860" rx="42" fill="none" stroke="#8a9b83" stroke-width="4" opacity="0.75"/>
  </g>
  <text x="600" y="650" text-anchor="middle" font-family="Georgia, serif" font-size="86" fill="#6f3b3b">Chú rể</text>
  <text x="600" y="728" text-anchor="middle" font-family="Arial, sans-serif" font-size="28" letter-spacing="8" fill="#8a6d3b">THE GROOM</text>
  <path d="M420 820 C500 760 700 760 780 820 C700 900 500 900 420 820Z" fill="#8a9b83" opacity="0.32"/>
  <circle cx="600" cy="820" r="46" fill="#c98f8f" opacity="0.45"/>
</svg>