<svg xmlns="http://www.w3.org/2000/svg" width="380" height="380" viewBox="0 0 380 380" role="img" aria-label="QR HN">
  <rect width="380" height="380" rx="36" fill="#fffafb"/>
  <rect x="20" y="20" width="340" height="340" rx="24" fill="#fff" stroke="#c6a15b" stroke-width="6"/>
  <rect x="42" y="42" width="16" height="16" rx="2" fill="#332b29"/><rect x="64" y="42" width="16" height="16" rx="2" fill="#332b29"/><rect x="108" y="42" width="16" height="16" rx="2" fill="#332b29"/><rect x="174" y="42" width="16" height="16" rx="2" fill="#332b29"/><rect x="240" y="42" width="16" height="16" rx="2" fill="#332b29"/><rect x="284" y="42" width="16" height="16" rx="2" fill="#332b29"/><rect x="306" y="42" width="16" height="16" rx="2" fill="#332b29"/><rect x="42" y="64" width="16" height="16" rx="2" fill="#332b29"/><rect x="64" y="64" width="16" height="16" rx="2" fill="#332b29"/><rect x="130" y="64" width="16" height="16" rx="2" fill="#332b29"/><rect x="196" y="64" width="16" height="16" rx="2" fill="#332b29"/><rect x="262" y="64" width="16" height="16" rx="2" fill="#332b29"/><rect x="284" y="64" width="16" height="16" rx="2" fill="#332b29"/><rect x="306" y="64" width="16" height="16" rx="2" fill="#332b29"/><rect x="42" y="108" width="16" height="16" rx="2" fill="#332b29"/><rect x="108" y="108" width="16" height="16" rx="2" fill="#332b29"/><rect x="174" y="108" width="16" height="16" rx="2" fill="#332b29"/><rect x="240" y="108" width="16" height="16" rx="2" fill="#332b29"/><rect x="306" y="108" width="16" height="16" rx="2" fill="#332b29"/><rect x="64" y="130" width="16" height="16" rx="2" fill="#332b29"/><rect x="130" y="130" width="16" height="16" rx="2" fill="#332b29"/><rect x="196" y="130" width="16" height="16" rx="2" fill="#332b29"/><rect x="262" y="130" width="16" height="16" rx="2" fill="#332b29"/><rect x="152" y="152" width="16" height="16" rx="2" fill="#332b29"/><rect x="174" y="152" width="16" height="16" rx="2" fill="#332b29"/><rect x="196" y="152" width="16" height="16" rx="2" fill="#332b29"/><rect x="42" y="174" width="16" height="16" rx="2" fill="#332b29"/><rect x="108" y="174" width="16" height="16" rx="2" fill="#332b29"/><rect x="152" y="174" width="16" height="16" rx="2" fill="#332b29"/><rect x="174" y="174" width="16" height="16" rx="2" fill="#332b29"/><rect x="196" y="174" width="16" height="16" rx="2" fill="#332b29"/><rect x="240" y="174" width="16" height="16" rx="2" fill="#332b29"/><rect x="306" y="174" width="16" height="16" rx="2" fill="#332b29"/><rect x="64" y="196" width="16" height="16" rx="2" fill="#332b29"/><rect x="130" y="196" width="16" height="16" rx="2" fill="#332b29"/><rect x="152" y="196" width="16" height="16" rx="2" fill="#332b29"/><rect x="174" y="196" width="16" height="16" rx="2" fill="#332b29"/><rect x="196" y="196" width="16" height="16" rx="2" fill="#332b29"/><rect x="262" y="196" width="16" height="16" rx="2" fill="#332b29"/><rect x="42" y="240" width="16" height="16" rx="2" fill="#332b29"/><rect x="108" y="240" width="16" height="16" rx="2" fill="#332b29"/><rect x="174" y="240" width="16" height="16" rx="2" fill="#332b29"/><rect x="240" y="240" width="16" height="16" rx="2" fill="#332b29"/><rect x="306" y="240" width="16" height="16" rx="2" fill="#332b29"/><rect x="64" y="262" width="16" height="16" rx="2" fill="#332b29"/><rect x="130" y="262" width="16" height="16" rx="2" fill="#332b29"/><rect x="196" y="262" width="16" height="16" rx="2" fill="#332b29"/><rect x="262" y="262" width="16" height="16" rx="2" fill="#332b29"/><rect x="42" y="284" width="16" height="16" rx="2" fill="#332b29"/><rect x="64" y="284" width="16" height="16" rx="2" fill="#332b29"/><rect x="284" y="284" width="16" height="16" rx="2" fill="#332b29"/><rect x="306" y="284" width="16" height="16" rx="2" fill="#332b29"/><rect x="42" y="306" width="16" height="16" rx="2" fill="#332b29"/><rect x="64" y="306" width="16" height="16" rx="2" fill="#332b29"/><rect x="108" y="306" width="16" height="16" rx="2" fill="#332b29"/><rect x="174" y="306" width="16" height="16" rx="2" fill="#332b29"/><rect x="240" y="306" width="16" height="16" rx="2" fill="#332b29"/><rect x="284" y="306" width="16" height="16" rx="2" fill="#332b29"/><rect x="306" y="306" width="16" height="16" rx="2" fill="#332b29"/>
  <circle cx="190" cy="190" r="40" fill="#fffafb" stroke="#c6a15b" stroke-width="4"/>
  <text x="190" y="198" text-anchor="middle" font-family="Georgia, serif" font-size="25" fill="#6f3b3b">HN</text>
</svg>